<mxfile version="13.7.3" type="github" host="app.diagrams.net" modified="2020-09-19T12:23:32.338Z" agent="5.0 (Windows NT 10.0; Win64; x64) AppleWebKit/537.36 (KHTML, like Gecko) Chrome/70.0.3538.102 Safari/537.36 Edge/18.18363" etag="K1y17-hth6-GIZdaosvS">
  <diagram id="C5RBs43oDa-KdzZeNtuy" name="Page-1">
    <mxGraphModel grid="1" shadow="0" math="0" pageHeight="1169" pageWidth="827" pageScale="1" page="1" fold="1" arrows="1" connect="1" tooltips="1" guides="1" gridSize="10" dy="878" dx="1566">
      <root>
        <mxCell id="WIyWlLk6GJQsqaUBKTNV-0" />
        <mxCell id="WIyWlLk6GJQsqaUBKTNV-1" parent="WIyWlLk6GJQsqaUBKTNV-0" />
        <mxCell id="MC-MRE5SszhjNoNCakLe-23" value="Rectangle and Square" parent="WIyWlLk6GJQsqaUBKTNV-1" vertex="1" style="swimlane;fontStyle=0;align=center;verticalAlign=top;childLayout=stackLayout;horizontal=1;startSize=26;horizontalStack=0;resizeParent=1;resizeLast=0;collapsible=1;marginBottom=0;rounded=0;shadow=0;strokeWidth=1;">
          <mxGeometry as="geometry" height="182" width="160" y="460" x="270">
            <mxRectangle as="alternateBounds" height="26" width="170" y="380" x="340" />
          </mxGeometry>
        </mxCell>
        <mxCell id="MC-MRE5SszhjNoNCakLe-24" value="#Width : doubleÂ &#xa;#Length : double" parent="MC-MRE5SszhjNoNCakLe-23" vertex="1" style="text;align=left;verticalAlign=top;spacingLeft=4;spacingRight=4;overflow=hidden;rotatable=0;points=[[0,0.5],[1,0.5]];portConstraint=eastwest;">
          <mxGeometry as="geometry" height="34" width="160" y="26" />
        </mxCell>
        <mxCell id="MC-MRE5SszhjNoNCakLe-25" value="" parent="MC-MRE5SszhjNoNCakLe-23" vertex="1" style="line;html=1;strokeWidth=1;align=left;verticalAlign=middle;spacingTop=-1;spacingLeft=3;spacingRight=3;rotatable=0;labelPosition=right;points=[];portConstraint=eastwest;">
          <mxGeometry as="geometry" height="8" width="160" y="60" />
        </mxCell>
        <mxCell id="MC-MRE5SszhjNoNCakLe-26" value="&lt;div align=&quot;left&quot;&gt;-RectangleAndSquare(String, double, double, double)&lt;br&gt;&lt;span style=&quot;font: 12px / 1.2 &amp;#34;helvetica&amp;#34; ; color: rgb(0 , 0 , 0) ; text-transform: none ; text-indent: 0px ; letter-spacing: normal ; text-decoration: none ; word-spacing: 0px ; display: inline ; float: none ; overflow-wrap: normal ; background-color: rgb(248 , 249 , 250)&quot;&gt;-double calculatearea()&lt;/span&gt;&lt;br&gt;&lt;/div&gt;" parent="MC-MRE5SszhjNoNCakLe-23" vertex="1" style="text;html=1;strokeColor=none;fillColor=none;align=center;verticalAlign=middle;whiteSpace=wrap;rounded=0;">
          <mxGeometry as="geometry" height="52" width="160" y="68" />
        </mxCell>
        <mxCell id="MC-MRE5SszhjNoNCakLe-27" value="&lt;div align=&quot;left&quot;&gt;&lt;/div&gt;" parent="MC-MRE5SszhjNoNCakLe-23" vertex="1" style="text;html=1;strokeColor=none;fillColor=none;align=left;verticalAlign=middle;whiteSpace=wrap;rounded=0;">
          <mxGeometry as="geometry" height="62" width="160" y="120" />
        </mxCell>
        <mxCell id="MC-MRE5SszhjNoNCakLe-28" value="Square" parent="WIyWlLk6GJQsqaUBKTNV-1" vertex="1" style="swimlane;fontStyle=0;align=center;verticalAlign=top;childLayout=stackLayout;horizontal=1;startSize=26;horizontalStack=0;resizeParent=1;resizeLast=0;collapsible=1;marginBottom=0;rounded=0;shadow=0;strokeWidth=1;">
          <mxGeometry as="geometry" height="90" width="280" y="720" x="50">
            <mxRectangle as="alternateBounds" height="26" width="160" y="380" x="130" />
          </mxGeometry>
        </mxCell>
        <mxCell id="MC-MRE5SszhjNoNCakLe-29" value="" parent="MC-MRE5SszhjNoNCakLe-28" vertex="1" style="line;html=1;strokeWidth=1;align=left;verticalAlign=middle;spacingTop=-1;spacingLeft=3;spacingRight=3;rotatable=0;labelPosition=right;points=[];portConstraint=eastwest;">
          <mxGeometry as="geometry" height="34" width="280" y="26" />
        </mxCell>
        <mxCell id="MC-MRE5SszhjNoNCakLe-30" value="&lt;div align=&quot;left&quot; style=&quot;text-align: left ; color: rgb(0 , 0 , 0) ; text-transform: none ; text-indent: 0px ; letter-spacing: normal ; font-family: &amp;#34;helvetica&amp;#34; ; font-size: 12px ; font-style: normal ; font-variant: normal ; font-weight: 400 ; text-decoration: none ; word-spacing: 0px&quot;&gt;Square(String, double, double)&lt;br&gt;&lt;span style=&quot;background-color: rgb(248 , 249 , 250) ; color: rgb(0 , 0 , 0) ; display: inline ; float: none ; font-family: &amp;#34;quot&amp;#34; ; font-stretch: normal ; font-style: normal ; font-variant: normal ; font-weight: normal ; letter-spacing: normal ; line-height: 1.2 ; overflow-wrap: normal ; text-decoration: none ; text-indent: 0px ; text-transform: none ; word-spacing: 0px&quot;&gt;-double calculatearea()&lt;/span&gt;&lt;br&gt;&lt;/div&gt;" parent="MC-MRE5SszhjNoNCakLe-28" vertex="1" style="text;html=1;align=center;verticalAlign=middle;resizable=0;points=[];autosize=1;">
          <mxGeometry as="geometry" height="30" width="280" y="60" />
        </mxCell>
        <mxCell id="MC-MRE5SszhjNoNCakLe-31" value="Rectangle" parent="WIyWlLk6GJQsqaUBKTNV-1" vertex="1" style="swimlane;fontStyle=0;align=center;verticalAlign=top;childLayout=stackLayout;horizontal=1;startSize=26;horizontalStack=0;resizeParent=1;resizeLast=0;collapsible=1;marginBottom=0;rounded=0;shadow=0;strokeWidth=1;">
          <mxGeometry as="geometry" height="90" width="280" y="720" x="340">
            <mxRectangle as="alternateBounds" height="26" width="160" y="380" x="130" />
          </mxGeometry>
        </mxCell>
        <mxCell id="MC-MRE5SszhjNoNCakLe-32" value="" parent="MC-MRE5SszhjNoNCakLe-31" vertex="1" style="line;html=1;strokeWidth=1;align=left;verticalAlign=middle;spacingTop=-1;spacingLeft=3;spacingRight=3;rotatable=0;labelPosition=right;points=[];portConstraint=eastwest;">
          <mxGeometry as="geometry" height="34" width="280" y="26" />
        </mxCell>
        <mxCell id="MC-MRE5SszhjNoNCakLe-33" value="&lt;div align=&quot;left&quot; style=&quot;text-align: left ; color: rgb(0 , 0 , 0) ; text-transform: none ; text-indent: 0px ; letter-spacing: normal ; font-size: 12px ; font-style: normal ; font-variant: normal ; font-weight: 400 ; text-decoration: none ; word-spacing: 0px&quot;&gt;-Rectangle(String, double, double, double)&lt;br&gt;&lt;span style=&quot;background-color: rgb(248 , 249 , 250) ; color: rgb(0 , 0 , 0) ; display: inline ; float: none ; font-family: &amp;#34;quot&amp;#34; ; font-style: normal ; font-variant: normal ; font-weight: normal ; letter-spacing: normal ; line-height: 1.2 ; overflow-wrap: normal ; text-decoration: none ; text-indent: 0px ; text-transform: none ; word-spacing: 0px&quot;&gt;-double calculatearea()&lt;/span&gt;&lt;br&gt;&lt;/div&gt;" parent="MC-MRE5SszhjNoNCakLe-31" vertex="1" style="text;html=1;align=center;verticalAlign=middle;resizable=0;points=[];autosize=1;">
          <mxGeometry as="geometry" height="30" width="280" y="60" />
        </mxCell>
        <mxCell id="MC-MRE5SszhjNoNCakLe-34" target="MC-MRE5SszhjNoNCakLe-45" value="" parent="WIyWlLk6GJQsqaUBKTNV-1" style="endArrow=block;endSize=16;endFill=0;html=1;entryX=0.25;entryY=1;entryDx=0;entryDy=0;exitX=1;exitY=0;exitDx=0;exitDy=0;" edge="1" source="MC-MRE5SszhjNoNCakLe-35">
          <mxGeometry as="geometry" width="160" relative="1">
            <mxPoint as="sourcePoint" y="450" x="250" />
            <mxPoint as="targetPoint" y="300" x="250" />
            <Array as="points">
              <mxPoint y="470" x="210" />
            </Array>
          </mxGeometry>
        </mxCell>
        <mxCell id="MC-MRE5SszhjNoNCakLe-35" value="Circle" parent="WIyWlLk6GJQsqaUBKTNV-1" vertex="1" style="swimlane;fontStyle=0;align=center;verticalAlign=top;childLayout=stackLayout;horizontal=1;startSize=26;horizontalStack=0;resizeParent=1;resizeLast=0;collapsible=1;marginBottom=0;rounded=0;shadow=0;strokeWidth=1;">
          <mxGeometry as="geometry" height="138" width="160" y="460" x="70">
            <mxRectangle as="alternateBounds" height="26" width="160" y="380" x="130" />
          </mxGeometry>
        </mxCell>
        <mxCell id="MC-MRE5SszhjNoNCakLe-36" value="-Radius : double" parent="MC-MRE5SszhjNoNCakLe-35" vertex="1" style="text;align=left;verticalAlign=top;spacingLeft=4;spacingRight=4;overflow=hidden;rotatable=0;points=[[0,0.5],[1,0.5]];portConstraint=eastwest;rounded=0;shadow=0;html=0;">
          <mxGeometry as="geometry" height="26" width="160" y="26" />
        </mxCell>
        <mxCell id="MC-MRE5SszhjNoNCakLe-37" value="" parent="MC-MRE5SszhjNoNCakLe-35" vertex="1" style="line;html=1;strokeWidth=1;align=left;verticalAlign=middle;spacingTop=-1;spacingLeft=3;spacingRight=3;rotatable=0;labelPosition=right;points=[];portConstraint=eastwest;">
          <mxGeometry as="geometry" height="8" width="160" y="52" />
        </mxCell>
        <mxCell id="MC-MRE5SszhjNoNCakLe-38" value="- Circle(String , double , int )&lt;br&gt;- double calculatearea()" parent="MC-MRE5SszhjNoNCakLe-35" vertex="1" style="text;align=left;verticalAlign=top;spacingLeft=4;spacingRight=4;overflow=hidden;rotatable=0;points=[[0,0.5],[1,0.5]];portConstraint=eastwest;html=1;">
          <mxGeometry as="geometry" height="50" width="160" y="60" />
        </mxCell>
        <mxCell id="MC-MRE5SszhjNoNCakLe-39" target="MC-MRE5SszhjNoNCakLe-45" value="" parent="WIyWlLk6GJQsqaUBKTNV-1" style="endArrow=block;endSize=16;endFill=0;html=1;entryX=0.75;entryY=1;entryDx=0;entryDy=0;" edge="1">
          <mxGeometry as="geometry" width="160" relative="1">
            <mxPoint as="sourcePoint" y="460" x="290" />
            <mxPoint as="targetPoint" y="246" x="388.82" />
            <Array as="points">
              <mxPoint y="460" x="290" />
            </Array>
          </mxGeometry>
        </mxCell>
        <mxCell id="MC-MRE5SszhjNoNCakLe-40" target="MC-MRE5SszhjNoNCakLe-27" value="" parent="WIyWlLk6GJQsqaUBKTNV-1" style="endArrow=block;endSize=16;endFill=0;html=1;entryX=0.25;entryY=1;entryDx=0;entryDy=0;" edge="1" source="MC-MRE5SszhjNoNCakLe-28">
          <mxGeometry as="geometry" width="160" relative="1">
            <mxPoint as="sourcePoint" y="710" x="310" />
            <mxPoint as="targetPoint" y="420" x="570" />
            <Array as="points">
              <mxPoint y="690" x="190" />
              <mxPoint y="690" x="310" />
            </Array>
          </mxGeometry>
        </mxCell>
        <mxCell id="MC-MRE5SszhjNoNCakLe-41" target="MC-MRE5SszhjNoNCakLe-27" value="" parent="WIyWlLk6GJQsqaUBKTNV-1" style="endArrow=block;endSize=16;endFill=0;html=1;entryX=0.75;entryY=1;entryDx=0;entryDy=0;exitX=0.5;exitY=0;exitDx=0;exitDy=0;" edge="1" source="MC-MRE5SszhjNoNCakLe-31">
          <mxGeometry as="geometry" width="160" relative="1">
            <mxPoint as="sourcePoint" y="730" x="200" />
            <mxPoint as="targetPoint" y="652" x="320.0000000000002" />
            <Array as="points">
              <mxPoint y="690" x="480" />
              <mxPoint y="690" x="390" />
            </Array>
          </mxGeometry>
        </mxCell>
        <mxCell id="MC-MRE5SszhjNoNCakLe-42" value="Shape" parent="WIyWlLk6GJQsqaUBKTNV-1" vertex="1" style="swimlane;fontStyle=2;align=center;verticalAlign=top;childLayout=stackLayout;horizontal=1;startSize=26;horizontalStack=0;resizeParent=1;resizeLast=0;collapsible=1;marginBottom=0;rounded=0;shadow=0;strokeWidth=1;">
          <mxGeometry as="geometry" height="156" width="160" y="110" x="170">
            <mxRectangle as="alternateBounds" height="26" width="160" y="140" x="230" />
          </mxGeometry>
        </mxCell>
        <mxCell id="MC-MRE5SszhjNoNCakLe-43" value="&lt;div align=&quot;left&quot;&gt;+name : String&lt;br&gt;&lt;br&gt;&lt;/div&gt;&lt;div align=&quot;left&quot;&gt;+area : double&lt;/div&gt;" parent="MC-MRE5SszhjNoNCakLe-42" vertex="1" style="text;html=1;align=left;verticalAlign=middle;resizable=0;points=[];autosize=1;">
          <mxGeometry as="geometry" height="50" width="160" y="26" />
        </mxCell>
        <mxCell id="MC-MRE5SszhjNoNCakLe-44" value="" parent="MC-MRE5SszhjNoNCakLe-42" vertex="1" style="line;html=1;strokeWidth=1;align=left;verticalAlign=middle;spacingTop=-1;spacingLeft=3;spacingRight=3;rotatable=0;labelPosition=right;points=[];portConstraint=eastwest;">
          <mxGeometry as="geometry" height="60" width="160" y="76" />
        </mxCell>
        <mxCell id="MC-MRE5SszhjNoNCakLe-45" value="+calculatearea()" parent="MC-MRE5SszhjNoNCakLe-42" vertex="1" style="text;html=1;strokeColor=none;fillColor=none;align=left;verticalAlign=middle;whiteSpace=wrap;rounded=0;">
          <mxGeometry as="geometry" height="20" width="160" y="136" />
        </mxCell>
        <mxCell id="MC-MRE5SszhjNoNCakLe-50" value="Â«interfaceÂ»&lt;br&gt;&lt;b&gt;Moving&lt;/b&gt;" parent="WIyWlLk6GJQsqaUBKTNV-1" vertex="1" style="html=1;">
          <mxGeometry as="geometry" height="50" width="110" y="474" x="690" />
        </mxCell>
        <mxCell id="MC-MRE5SszhjNoNCakLe-51" value="" parent="WIyWlLk6GJQsqaUBKTNV-1" style="endArrow=open;endSize=12;dashed=1;html=1;exitX=0;exitY=0.5;exitDx=0;exitDy=0;entryX=1;entryY=0.5;entryDx=0;entryDy=0;" edge="1" source="MC-MRE5SszhjNoNCakLe-50">
          <mxGeometry as="geometry" width="160" relative="1">
            <mxPoint as="sourcePoint" y="620" x="590" />
            <mxPoint as="targetPoint" y="498.9999999999998" x="630" />
          </mxGeometry>
        </mxCell>
        <mxCell id="MC-MRE5SszhjNoNCakLe-46" value="MovingRectangle" parent="WIyWlLk6GJQsqaUBKTNV-1" vertex="1" style="swimlane;fontStyle=1;align=center;verticalAlign=top;childLayout=stackLayout;horizontal=1;startSize=26;horizontalStack=0;resizeParent=1;resizeParentMax=0;resizeLast=0;collapsible=1;marginBottom=0;">
          <mxGeometry as="geometry" height="60" width="160" y="460" x="470" />
        </mxCell>
        <mxCell id="MC-MRE5SszhjNoNCakLe-48" value="" parent="MC-MRE5SszhjNoNCakLe-46" vertex="1" style="line;strokeWidth=1;fillColor=none;align=left;verticalAlign=middle;spacingTop=-1;spacingLeft=3;spacingRight=3;rotatable=0;labelPosition=right;points=[];portConstraint=eastwest;">
          <mxGeometry as="geometry" height="8" width="160" y="26" />
        </mxCell>
        <mxCell id="MC-MRE5SszhjNoNCakLe-49" value="+Move (double)" parent="MC-MRE5SszhjNoNCakLe-46" vertex="1" style="text;strokeColor=none;fillColor=none;align=left;verticalAlign=top;spacingLeft=4;spacingRight=4;overflow=hidden;rotatable=0;points=[[0,0.5],[1,0.5]];portConstraint=eastwest;">
          <mxGeometry as="geometry" height="26" width="160" y="34" />
        </mxCell>
        <mxCell id="MC-MRE5SszhjNoNCakLe-56" value="MovingPoints" parent="WIyWlLk6GJQsqaUBKTNV-1" vertex="1" style="swimlane;fontStyle=1;align=center;verticalAlign=top;childLayout=stackLayout;horizontal=1;startSize=26;horizontalStack=0;resizeParent=1;resizeParentMax=0;resizeLast=0;collapsible=1;marginBottom=0;">
          <mxGeometry as="geometry" height="60" width="160" y="585" x="665" />
        </mxCell>
        <mxCell id="MC-MRE5SszhjNoNCakLe-57" value="" parent="MC-MRE5SszhjNoNCakLe-56" vertex="1" style="line;strokeWidth=1;fillColor=none;align=left;verticalAlign=middle;spacingTop=-1;spacingLeft=3;spacingRight=3;rotatable=0;labelPosition=right;points=[];portConstraint=eastwest;">
          <mxGeometry as="geometry" height="8" width="160" y="26" />
        </mxCell>
        <mxCell id="MC-MRE5SszhjNoNCakLe-58" value="+MovePoint (double, double)" parent="MC-MRE5SszhjNoNCakLe-56" vertex="1" style="text;strokeColor=none;fillColor=none;align=left;verticalAlign=top;spacingLeft=4;spacingRight=4;overflow=hidden;rotatable=0;points=[[0,0.5],[1,0.5]];portConstraint=eastwest;">
          <mxGeometry as="geometry" height="26" width="160" y="34" />
        </mxCell>
        <mxCell id="MC-MRE5SszhjNoNCakLe-59" target="MC-MRE5SszhjNoNCakLe-56" value="" parent="WIyWlLk6GJQsqaUBKTNV-1" style="endArrow=open;endSize=12;dashed=1;html=1;exitX=0.5;exitY=1;exitDx=0;exitDy=0;entryX=0.5;entryY=0;entryDx=0;entryDy=0;" edge="1" source="MC-MRE5SszhjNoNCakLe-50">
          <mxGeometry as="geometry" width="160" relative="1">
            <mxPoint as="sourcePoint" y="509" x="700" />
            <mxPoint as="targetPoint" y="508.9999999999998" x="640" />
          </mxGeometry>
        </mxCell>
      </root>
    </mxGraphModel>
  </diagram>
</mxfile>
